<mxfile host="app.diagrams.net" agent="Mozilla/5.0 (Windows NT 10.0; Win64; x64) AppleWebKit/537.36 (KHTML, like Gecko) Chrome/139.0.0.0 Safari/537.36 Edg/139.0.0.0" version="28.1.2">
  <diagram name="Page-1" id="9KxDget7P6iaAq0sM41X">
    <mxGraphModel dx="1034" dy="604" grid="1" gridSize="10" guides="1" tooltips="1" connect="1" arrows="1" fold="1" page="1" pageScale="1" pageWidth="1100" pageHeight="850" math="0" shadow="0">
      <root>
        <mxCell id="0" />
        <mxCell id="1" parent="0" />
        <mxCell id="M27F08uEu1OlHSNToERc-1" value="&lt;h1&gt;Login&lt;/h1&gt;" style="ellipse;whiteSpace=wrap;html=1;" vertex="1" parent="1">
          <mxGeometry x="430" y="20" width="120" height="80" as="geometry" />
        </mxCell>
        <mxCell id="M27F08uEu1OlHSNToERc-4" value="&lt;h3&gt;Groceries&lt;/h3&gt;" style="shape=parallelogram;perimeter=parallelogramPerimeter;whiteSpace=wrap;html=1;fixedSize=1;" vertex="1" parent="1">
          <mxGeometry x="660" y="290" width="120" height="60" as="geometry" />
        </mxCell>
        <mxCell id="M27F08uEu1OlHSNToERc-5" value="&lt;h3&gt;Starters/biryani&#39;s and special food items&lt;/h3&gt;" style="shape=parallelogram;perimeter=parallelogramPerimeter;whiteSpace=wrap;html=1;fixedSize=1;" vertex="1" parent="1">
          <mxGeometry x="130" y="290" width="180" height="60" as="geometry" />
        </mxCell>
        <mxCell id="M27F08uEu1OlHSNToERc-31" value="" style="edgeStyle=orthogonalEdgeStyle;rounded=0;orthogonalLoop=1;jettySize=auto;html=1;" edge="1" parent="1" source="M27F08uEu1OlHSNToERc-6" target="M27F08uEu1OlHSNToERc-29">
          <mxGeometry relative="1" as="geometry" />
        </mxCell>
        <mxCell id="M27F08uEu1OlHSNToERc-6" value="&lt;h3&gt;Pick any item and confirm your order&lt;/h3&gt;" style="rhombus;whiteSpace=wrap;html=1;" vertex="1" parent="1">
          <mxGeometry x="390" y="425" width="170" height="80" as="geometry" />
        </mxCell>
        <mxCell id="M27F08uEu1OlHSNToERc-7" value="&lt;h3&gt;Online payment or payment bill&lt;/h3&gt;" style="shape=document;whiteSpace=wrap;html=1;boundedLbl=1;" vertex="1" parent="1">
          <mxGeometry x="420" y="640" width="120" height="80" as="geometry" />
        </mxCell>
        <mxCell id="M27F08uEu1OlHSNToERc-8" value="Actor" style="shape=umlActor;verticalLabelPosition=bottom;verticalAlign=top;html=1;outlineConnect=0;" vertex="1" parent="1">
          <mxGeometry x="460" y="760" width="30" height="60" as="geometry" />
        </mxCell>
        <mxCell id="M27F08uEu1OlHSNToERc-9" value="&lt;h3&gt;Feedback of food and delivery&lt;/h3&gt;" style="shape=note;whiteSpace=wrap;html=1;backgroundOutline=1;darkOpacity=0.05;" vertex="1" parent="1">
          <mxGeometry x="440" y="950" width="80" height="100" as="geometry" />
        </mxCell>
        <mxCell id="M27F08uEu1OlHSNToERc-11" value="&lt;h3&gt;Check Login credentials&lt;/h3&gt;" style="rhombus;whiteSpace=wrap;html=1;" vertex="1" parent="1">
          <mxGeometry x="435" y="140" width="115" height="80" as="geometry" />
        </mxCell>
        <mxCell id="M27F08uEu1OlHSNToERc-16" value="&lt;h3&gt;Delivery partner&lt;/h3&gt;" style="text;html=1;align=center;verticalAlign=middle;resizable=0;points=[];autosize=1;strokeColor=none;fillColor=none;" vertex="1" parent="1">
          <mxGeometry x="410" y="860" width="130" height="60" as="geometry" />
        </mxCell>
        <mxCell id="M27F08uEu1OlHSNToERc-17" value="&lt;h3&gt;New User&lt;/h3&gt;" style="shape=cylinder3;whiteSpace=wrap;html=1;boundedLbl=1;backgroundOutline=1;size=15;" vertex="1" parent="1">
          <mxGeometry x="710" y="120" width="60" height="80" as="geometry" />
        </mxCell>
        <mxCell id="M27F08uEu1OlHSNToERc-18" value="" style="endArrow=classic;html=1;rounded=0;" edge="1" parent="1" source="M27F08uEu1OlHSNToERc-3">
          <mxGeometry width="50" height="50" relative="1" as="geometry">
            <mxPoint x="500" y="360" as="sourcePoint" />
            <mxPoint x="550" y="310" as="targetPoint" />
          </mxGeometry>
        </mxCell>
        <mxCell id="M27F08uEu1OlHSNToERc-19" value="" style="endArrow=classic;html=1;rounded=0;" edge="1" parent="1" target="M27F08uEu1OlHSNToERc-3">
          <mxGeometry width="50" height="50" relative="1" as="geometry">
            <mxPoint x="500" y="360" as="sourcePoint" />
            <mxPoint x="550" y="310" as="targetPoint" />
          </mxGeometry>
        </mxCell>
        <mxCell id="M27F08uEu1OlHSNToERc-3" value="&lt;h3&gt;Search for location Available Restaurants&lt;/h3&gt;" style="shape=parallelogram;perimeter=parallelogramPerimeter;whiteSpace=wrap;html=1;fixedSize=1;" vertex="1" parent="1">
          <mxGeometry x="370" y="290" width="240" height="60" as="geometry" />
        </mxCell>
        <mxCell id="M27F08uEu1OlHSNToERc-21" value="" style="endArrow=classic;html=1;rounded=0;entryX=0.5;entryY=0;entryDx=0;entryDy=0;exitX=0.5;exitY=1;exitDx=0;exitDy=0;" edge="1" parent="1" source="M27F08uEu1OlHSNToERc-1" target="M27F08uEu1OlHSNToERc-11">
          <mxGeometry width="50" height="50" relative="1" as="geometry">
            <mxPoint x="405" y="140" as="sourcePoint" />
            <mxPoint x="455" y="90" as="targetPoint" />
          </mxGeometry>
        </mxCell>
        <mxCell id="M27F08uEu1OlHSNToERc-23" value="" style="endArrow=classic;html=1;rounded=0;entryX=0.5;entryY=0;entryDx=0;entryDy=0;exitX=0.5;exitY=1;exitDx=0;exitDy=0;" edge="1" parent="1" source="M27F08uEu1OlHSNToERc-11" target="M27F08uEu1OlHSNToERc-3">
          <mxGeometry width="50" height="50" relative="1" as="geometry">
            <mxPoint x="480" y="220" as="sourcePoint" />
            <mxPoint x="470" y="220" as="targetPoint" />
          </mxGeometry>
        </mxCell>
        <mxCell id="M27F08uEu1OlHSNToERc-24" value="" style="endArrow=classic;html=1;rounded=0;" edge="1" parent="1">
          <mxGeometry width="50" height="50" relative="1" as="geometry">
            <mxPoint x="490" y="220" as="sourcePoint" />
            <mxPoint x="250" y="280" as="targetPoint" />
          </mxGeometry>
        </mxCell>
        <mxCell id="M27F08uEu1OlHSNToERc-25" value="" style="endArrow=classic;html=1;rounded=0;exitX=0.5;exitY=1;exitDx=0;exitDy=0;" edge="1" parent="1" source="M27F08uEu1OlHSNToERc-11">
          <mxGeometry width="50" height="50" relative="1" as="geometry">
            <mxPoint x="580" y="250" as="sourcePoint" />
            <mxPoint x="710" y="280" as="targetPoint" />
          </mxGeometry>
        </mxCell>
        <mxCell id="M27F08uEu1OlHSNToERc-26" value="" style="endArrow=classic;html=1;rounded=0;exitX=0.457;exitY=1.053;exitDx=0;exitDy=0;exitPerimeter=0;" edge="1" parent="1" source="M27F08uEu1OlHSNToERc-3">
          <mxGeometry width="50" height="50" relative="1" as="geometry">
            <mxPoint x="340" y="470" as="sourcePoint" />
            <mxPoint x="480" y="420" as="targetPoint" />
          </mxGeometry>
        </mxCell>
        <mxCell id="M27F08uEu1OlHSNToERc-29" value="&lt;h3&gt;Address of user&lt;/h3&gt;" style="shape=parallelogram;perimeter=parallelogramPerimeter;whiteSpace=wrap;html=1;fixedSize=1;" vertex="1" parent="1">
          <mxGeometry x="370" y="530" width="180" height="60" as="geometry" />
        </mxCell>
        <mxCell id="M27F08uEu1OlHSNToERc-32" value="" style="endArrow=classic;html=1;rounded=0;exitX=0.56;exitY=1.053;exitDx=0;exitDy=0;exitPerimeter=0;" edge="1" parent="1" source="M27F08uEu1OlHSNToERc-29">
          <mxGeometry width="50" height="50" relative="1" as="geometry">
            <mxPoint x="390" y="650" as="sourcePoint" />
            <mxPoint x="470" y="630" as="targetPoint" />
          </mxGeometry>
        </mxCell>
        <mxCell id="M27F08uEu1OlHSNToERc-33" value="" style="endArrow=classic;html=1;rounded=0;exitX=0.47;exitY=0.955;exitDx=0;exitDy=0;exitPerimeter=0;" edge="1" parent="1" source="M27F08uEu1OlHSNToERc-7">
          <mxGeometry width="50" height="50" relative="1" as="geometry">
            <mxPoint x="500" y="770" as="sourcePoint" />
            <mxPoint x="476" y="750" as="targetPoint" />
          </mxGeometry>
        </mxCell>
        <mxCell id="M27F08uEu1OlHSNToERc-35" value="" style="endArrow=classic;html=1;rounded=0;entryX=0;entryY=0;entryDx=25;entryDy=0;entryPerimeter=0;" edge="1" parent="1" source="M27F08uEu1OlHSNToERc-16" target="M27F08uEu1OlHSNToERc-9">
          <mxGeometry width="50" height="50" relative="1" as="geometry">
            <mxPoint x="400" y="950" as="sourcePoint" />
            <mxPoint x="450" y="900" as="targetPoint" />
          </mxGeometry>
        </mxCell>
      </root>
    </mxGraphModel>
  </diagram>
</mxfile>
